/* XPM */
static char * exit_w_xpm[] = {
"50 50 497 2",
"  	c #0040E5",
". 	c #003DE5",
"+ 	c #006DE5",
"@ 	c #0065E5",
"# 	c #0047E5",
"$ 	c #005AE5",
"% 	c #0061E5",
"& 	c #0078E5",
"* 	c #0023E5",
"= 	c #006BE5",
"- 	c #004BE5",
"; 	c #0050E5",
"> 	c #0024E5",
", 	c #0053E5",
"' 	c #0042E5",
") 	c #0027E5",
"! 	c #0038E5",
"~ 	c #0063E5",
"{ 	c #006EE5",
"] 	c #002AE5",
"^ 	c #002BE5",
"/ 	c #0060E5",
"( 	c #0076E5",
"_ 	c #0041E5",
": 	c #005FE5",
"< 	c #0029E5",
"[ 	c #0044E5",
"} 	c #002CE5",
"| 	c #0067E3",
"1 	c #006AE5",
"2 	c #005EE5",
"3 	c #0066E5",
"4 	c #003AE5",
"5 	c #0023E6",
"6 	c #0074E5",
"7 	c #0045E5",
"8 	c #004AE5",
"9 	c #0033E5",
"0 	c #0025E5",
"a 	c #002EE5",
"b 	c #003CE5",
"c 	c #006FE5",
"d 	c #0070E5",
"e 	c #005DE5",
"f 	c #003EE5",
"g 	c #0058E5",
"h 	c #0048E5",
"i 	c #0034E5",
"j 	c #005BE5",
"k 	c #0030E5",
"l 	c #0035E5",
"m 	c #0069E5",
"n 	c #0043E5",
"o 	c #0037E5",
"p 	c #004EE5",
"q 	c #004CE5",
"r 	c #002AE3",
"s 	c #0026E5",
"t 	c #0022E5",
"u 	c #0059E5",
"v 	c #004CE6",
"w 	c #0054E5",
"x 	c #0028E5",
"y 	c #0032E5",
"z 	c #0057E5",
"A 	c #0031E5",
"B 	c #0056E5",
"C 	c #0049E5",
"D 	c #0072E5",
"E 	c #007BE5",
"F 	c #0029E3",
"G 	c #0067E5",
"H 	c #005AE6",
"I 	c #0055E5",
"J 	c #003FE5",
"K 	c #0051E5",
"L 	c #002DE5",
"M 	c #0039E5",
"N 	c #004FE5",
"O 	c #006CE5",
"P 	c #005DE6",
"Q 	c #0036E5",
"R 	c #0030E4",
"S 	c #0065E4",
"T 	c #0074E4",
"U 	c #007AE4",
"V 	c #003FE4",
"W 	c #005CE5",
"X 	c #0062E5",
"Y 	c #0074E6",
"Z 	c #0046E5",
"` 	c #0055E6",
" .	c #0064E5",
"..	c #002FE5",
"+.	c #004AE6",
"@.	c #0053E3",
"#.	c #002DE3",
"$.	c #002EE4",
"%.	c #006EE4",
"&.	c #0067E2",
"*.	c #0062E6",
"=.	c #0079E6",
"-.	c #0075E5",
";.	c #0052E5",
">.	c #005BE6",
",.	c #0067E4",
"'.	c #0068E1",
").	c #003EE1",
"!.	c #0042E2",
"~.	c #0059E4",
"{.	c #0033E1",
"].	c #0079E5",
"^.	c #007EE5",
"/.	c #0059E6",
"(.	c #002EE6",
"_.	c #005BE3",
":.	c #0038E4",
"<.	c #0055DF",
"[.	c #0056DF",
"}.	c #0024E2",
"|.	c #005DE4",
"1.	c #0035E0",
"2.	c #0068E5",
"3.	c #0073E5",
"4.	c #006BE6",
"5.	c #0070E6",
"6.	c #0046E4",
"7.	c #005EE4",
"8.	c #0056E3",
"9.	c #0036E6",
"0.	c #005CE2",
"a.	c #0041E3",
"b.	c #0029E4",
"c.	c #004CDD",
"d.	c #0058DF",
"e.	c #0031E1",
"f.	c #0061E3",
"g.	c #004FE0",
"h.	c #0026E6",
"i.	c #0073E6",
"j.	c #006CE4",
"k.	c #0033E3",
"l.	c #0055E4",
"m.	c #0069E4",
"n.	c #0043E4",
"o.	c #0042E4",
"p.	c #0045E4",
"q.	c #004BE4",
"r.	c #0046E3",
"s.	c #003FE3",
"t.	c #004DE4",
"u.	c #0051E3",
"v.	c #002FE2",
"w.	c #006CE2",
"x.	c #0029E2",
"y.	c #0042E6",
"z.	c #005AE0",
"A.	c #0052DD",
"B.	c #006ADE",
"C.	c #0057E1",
"D.	c #0023E4",
"E.	c #006BE0",
"F.	c #0063E4",
"G.	c #0071E5",
"H.	c #002BE4",
"I.	c #0027E4",
"J.	c #0028E6",
"K.	c #0054E4",
"L.	c #0025E6",
"M.	c #003BE4",
"N.	c #003FE1",
"O.	c #0058E4",
"P.	c #0047E3",
"Q.	c #0063E6",
"R.	c #0049E3",
"S.	c #003BE3",
"T.	c #0052E3",
"U.	c #0037E3",
"V.	c #006BE3",
"W.	c #004AE2",
"X.	c #0047E2",
"Y.	c #004FE4",
"Z.	c #006BE2",
"`.	c #004BE1",
" +	c #0025DF",
".+	c #0059E1",
"++	c #003BE1",
"@+	c #004FE6",
"#+	c #0062DF",
"$+	c #0033E2",
"%+	c #0064DC",
"&+	c #003ADE",
"*+	c #0055E1",
"=+	c #0020E4",
"-+	c #0074E0",
";+	c #0043E3",
">+	c #0038E3",
",+	c #002BE6",
"'+	c #005FE4",
")+	c #0034E3",
"!+	c #002CE6",
"~+	c #005BE2",
"{+	c #006AE3",
"]+	c #0058E0",
"^+	c #0037E2",
"/+	c #0040E6",
"(+	c #0051E1",
"_+	c #0035E3",
":+	c #0060E2",
"<+	c #005FE1",
"[+	c #002EE3",
"}+	c #0072E1",
"|+	c #003BE0",
"1+	c #0065E0",
"2+	c #0059E0",
"3+	c #0050DF",
"4+	c #0060E0",
"5+	c #005EE0",
"6+	c #006CE6",
"7+	c #0061DF",
"8+	c #005FDC",
"9+	c #0048DE",
"0+	c #001CE4",
"a+	c #006BE1",
"b+	c #0060E3",
"c+	c #004BE2",
"d+	c #0049E2",
"e+	c #0054E6",
"f+	c #004CE2",
"g+	c #0027E6",
"h+	c #0021E5",
"i+	c #0050E2",
"j+	c #0041E4",
"k+	c #0029E6",
"l+	c #003DE4",
"m+	c #002EE1",
"n+	c #0032E2",
"o+	c #004BDE",
"p+	c #0031E4",
"q+	c #0039E0",
"r+	c #0039E6",
"s+	c #0069E0",
"t+	c #0042E1",
"u+	c #003DE2",
"v+	c #0058E1",
"w+	c #0042E3",
"x+	c #0064E1",
"y+	c #0032E0",
"z+	c #0053E0",
"A+	c #002AE4",
"B+	c #0074DF",
"C+	c #0077E5",
"D+	c #006DDF",
"E+	c #001CDE",
"F+	c #0031E0",
"G+	c #0025E0",
"H+	c #0F23CA",
"I+	c #260000",
"J+	c #0F5EC4",
"K+	c #0062E2",
"L+	c #0048E2",
"M+	c #005BE1",
"N+	c #0038E1",
"O+	c #0056E2",
"P+	c #0062E0",
"Q+	c #0032E6",
"R+	c #004EE1",
"S+	c #0046E2",
"T+	c #0058E3",
"U+	c #0030E2",
"V+	c #0035E2",
"W+	c #0051DE",
"X+	c #0041E1",
"Y+	c #003CE6",
"Z+	c #0067E0",
"`+	c #0068E2",
" @	c #006EE1",
".@	c #006BE4",
"+@	c #006ADF",
"@@	c #006AE0",
"#@	c #E0D4CD",
"$@	c #FFFFFF",
"%@	c #DBF0FC",
"&@	c #B9E3F9",
"*@	c #45130C",
"=@	c #0834D5",
"-@	c #003CE2",
";@	c #0061E1",
">@	c #005CE1",
",@	c #0058E6",
"'@	c #005FE0",
")@	c #004CE0",
"!@	c #0071E3",
"~@	c #006CE3",
"{@	c #005CDF",
"]@	c #0057E4",
"^@	c #0043E1",
"/@	c #005EE6",
"(@	c #002DE1",
"_@	c #001FE2",
":@	c #006AE2",
"<@	c #0066E3",
"[@	c #0026E2",
"}@	c #002CE4",
"|@	c #002EE2",
"1@	c #002AE0",
"2@	c #0023E0",
"3@	c #002CE1",
"4@	c #6F4031",
"5@	c #002BE1",
"6@	c #005DDF",
"7@	c #0021E0",
"8@	c #0072E0",
"9@	c #0038DF",
"0@	c #0068E3",
"a@	c #0056E1",
"b@	c #0067E6",
"c@	c #002BE3",
"d@	c #004DE3",
"e@	c #0070E0",
"f@	c #0071E6",
"g@	c #005EE2",
"h@	c #0028E1",
"i@	c #0024E1",
"j@	c #E7F5FD",
"k@	c #E3F3FD",
"l@	c #005CE0",
"m@	c #0030E1",
"n@	c #004DE6",
"o@	c #003CE0",
"p@	c #0028E2",
"q@	c #0068E6",
"r@	c #003EE3",
"s@	c #0074E3",
"t@	c #007BE2",
"u@	c #0052E6",
"v@	c #0044E2",
"w@	c #0036E3",
"x@	c #0050E3",
"y@	c #0031E3",
"z@	c #7DCEF4",
"A@	c #25143D",
"B@	c #0049E6",
"C@	c #002FE1",
"D@	c #0061E6",
"E@	c #0064E0",
"F@	c #0070E3",
"G@	c #0043E2",
"H@	c #007AE3",
"I@	c #0025E1",
"J@	c #006EE3",
"K@	c #0055E3",
"L@	c #005CE4",
"M@	c #0037E4",
"N@	c #002CE3",
"O@	c #202C78",
"P@	c #0071E1",
"Q@	c #006DE6",
"R@	c #0073E1",
"S@	c #0021E6",
"T@	c #0026E4",
"U@	c #0062E3",
"V@	c #0064E4",
"W@	c #0073E4",
"X@	c #0028E3",
"Y@	c #0073E3",
"Z@	c #001FE3",
"`@	c #0075E4",
" #	c #7DBFDD",
".#	c #0020E2",
"+#	c #0024E6",
"@#	c #007CE2",
"##	c #006AE1",
"$#	c #002AE2",
"%#	c #0025E4",
"&#	c #0028E4",
"*#	c #0030E3",
"=#	c #0079E4",
"-#	c #1B329D",
";#	c #0033E6",
">#	c #0032E4",
",#	c #0035E6",
"'#	c #0070E2",
")#	c #004BE6",
"!#	c #005CE3",
"~#	c #1929A5",
"{#	c #002DE6",
"]#	c #006FE3",
"^#	c #0061E2",
"/#	c #0046E6",
"(#	c #0047E6",
"_#	c #003EE4",
":#	c #0063E3",
"<#	c #C9C9CA",
"[#	c #F2F3F3",
"}#	c #420C04",
"|#	c #AFA7A2",
"1#	c #005FE6",
"2#	c #0022E4",
"3#	c #0080E6",
"4#	c #320100",
"5#	c #99867E",
"6#	c #7D6A62",
"7#	c #0062E4",
"8#	c #0066E6",
"9#	c #007EE6",
"0#	c #FCFCFC",
"a#	c #A49790",
"b#	c #4B1A0D",
"c#	c #B6E1F8",
"d#	c #192FA8",
"e#	c #0070E4",
"f#	c #0022E6",
"g#	c #0076E3",
"h#	c #0069E6",
"i#	c #007CE5",
"j#	c #A48374",
"k#	c #4B130B",
"l#	c #6E4C3F",
"m#	c #738287",
"n#	c #004EE3",
"o#	c #0072E4",
"p#	c #ACDDF8",
"q#	c #DEDFDF",
"r#	c #005BE4",
"s#	c #0034E6",
"t#	c #004EE6",
"u#	c #4E2318",
"v#	c #83685C",
"w#	c #390200",
"x#	c #CDCDCE",
"y#	c #AE998F",
"z#	c #006DE4",
"A#	c #007BE6",
"B#	c #004DE5",
"C#	c #22306A",
"D#	c #EFE9E6",
"E#	c #DEF1FC",
"F#	c #230757",
"G#	c #0044E6",
"H#	c #007AE5",
"I#	c #0064E6",
"J#	c #502318",
"K#	c #0056E6",
"L#	c #795A4E",
"M#	c #572416",
"N#	c #0076E6",
"O#	c #8E776D",
"P#	c #95D6F6",
"Q#	c #D6EEFB",
"R#	c #FBFDFF",
"S#	c #E5E6E6",
"T#	c #082AD9",
"U#	c #007FE6",
"V#	c #0050E6",
"W#	c #7B6C64",
"X#	c #9FA0A0",
"Y#	c #727171",
"Z#	c #FDD30C",
"`#	c #654032",
" $	c #8ED3F5",
".$	c #0051E6",
"+$	c #FDD000",
"@$	c #F49B00",
"#$	c #898989",
"$$	c #4A2D22",
"%$	c #F39800",
"&$	c #533E35",
"*$	c #003EE6",
"=$	c #0F5EC9",
"-$	c #125AC2",
";$	c #007AE6",
">$	c #0048E6",
",$	c #25083D",
"'$	c #4F291B",
")$	c #F8B400",
"!$	c #003FE6",
"~$	c #0075E6",
"{$	c #003AE6",
"]$	c #1947A8",
"^$	c #F9BC00",
"/$	c #F6AA00",
"($	c #0031E6",
"_$	c #0030E6",
":$	c #C1AA9F",
"<$	c #003DE6",
"[$	c #0043E6",
"}$	c #0053E6",
"|$	c #006EE6",
"1$	c #0065E6",
"2$	c #0057E6",
"3$	c #0041E6",
"4$	c #006FE6",
"5$	c #002AE6",
"6$	c #0038E6",
"7$	c #0045E6",
"8$	c #0072E6",
"  . + @ # $ % & * = - ; ; > , ' = ) ! ~ { ) ] ^ / ( / _ : < [ } | + 1 [ $ * 2 3 4 ; * 5 = 6 * * * 6 ",
"7 8 9 0 2 * a 2 b c 6 d e f = 1 ~ g h i j ) k l m n o c p $ q ~ r s ) 1 = f 2 t 2 u ) v * w * * 5 2 ",
"4 b 7 x [ > y : z s 0 0 * e 0 x } A B ! + C f / c l * = D E & + F 0 ) w * e d . G 3 u H l $ } 4 5 e ",
"< I u > q > J K n 9 L } L p } ' z M 4 N O   P 0 ~ Q R S T + ( U V ' ] W # ; > X * * * Y 2 2 ; Z ` ~ ",
"I  .N I I - K # ; [ f ..b g #  .2 9 : G d N +.# 1 W @.#.$.%.W &.p h $ I c ~ f I * * * *.* * 6 = =.* ",
"-.] ( ] d k 9 e ~ ;.. ^ Z e _ 0 Q Z  .~ y X >.,.] A '.).!.~.q {.j O ].^.0 > 3 2 L . ) /.* * u d ` ) ",
"j } N ] , i A B A . u y f z Z M C j l W ' e (._.:.> <.[.}.|.B 1.* * 6 2.y * ~ 3.u n K 4.i > # * 5.k ",
"/ e @ C B 9 n u . ) N , p ' ^ W i p 6.,.7.8.9.0.a.b.c.d.e.f.O g.> * W < ) Z d > h.O & 5.' 0 w - i.% ",
"j.0 k.~ |._ l.m.n.o.p.X q.r.s.q t.;.u.v.w.x.y.z.8.[ A.B.C.D.) E.V > $ 0 [ F.G.H.5 X I.J.B K.u 3.L.s ",
"f.M.N.O.P.Q.R.r.S.T.U.q.V.W.X.Y.Z.a `. +.+++@+#+$+% %+&+*+=+< -+;+p ~ , h #.6.>+,+'+)+!+I V.A ,.(.k ",
"~+{+]+o.^+/+(+_+!.:+<+[+}+|+1+K.]+g 2+3+4+5+6+7+a.~ 8+9+~+0+Z a+b+O y k ; c+8.d+e+f+W.g+h+i+j+T.k+l+",
"m+n+o+p+q+r+s+t+{.u+v+w+x+y+z+A+B+C+D+E+F+G+H+I+I+I+I+J+K+l.- e.L+n.# M.e M+&.N+Q.O+P+Q+! R+f.S+9.T+",
"U+V+W+j+X+Y+Z+`+).d+ @.@K+5++@t.@@ .1+I+#@$@$@%@&@&@&@&@&@*@I+=@-@<  . .{ ;@>@q+,@'@)@,@, 1+!@x.` ~@",
"U+w+{@]@^@/@(@_@:@<@[@}@|@1@2@c 3@I+4@$@&@&@$@$@$@$@%@&@&@&@&@&@I+I+: o E 2@5@6@5 7@8@k+c 9@0@a@b@c@",
"a.d@e@].K+f@5@_@g@f.}.}@|@h@i@2 I+j@&@&@k@$@$@$@$@&@&@&@&@&@&@&@&@&@I+  u h@|@l@h.m@d.L.n@o@<@p@q@r@",
"b+s@G+] t@u@v@w@u.x@y@j+P.X+i@I+&@&@&@&@&@&@&@&@&@&@&@&@&@&@&@&@&@&@z@z@A@(@d+E.B@C@@@,@D@E@F@G@i.S ",
"H@,.I@y J@=.f+d@K@L@s.M@N@W.I+&@&@&@&@&@&@&@&@&@&@&@&@&@&@&@&@&@&@&@&@z@z@O@Z.P@Q@0.R@S@S@5@T@U@J.A+",
"V@W@N.n X@J.Y@Y@Z@`@;+[ c@I+&@&@&@&@&@&@&@&@&@&@&@&@&@&@&@&@&@&@&@&@&@z@z@ #r .#+#@###S@S@$#T@K@J.A+",
"%#&#&.- *#J.{+O.&#=#V.4 -#$@&@&@&@&@&@&@&@&@&@&@&@&@&@&@&@&@&@&@&@&@&@z@z@z@I+.#+#T+:@S@;#L+>#| ,#n.",
"%#I.'#@ p.)#!#I+I+I+I+$@$@&@&@&@&@&@&@&@&@&@&@&@&@&@&@&@&@&@&@&@&@&@&@z@z@z@z@~#{#]#^#/#(#X.'+F.D@_#",
"$.- :#s m.I+<#<#<#<#<#[#<#}#|#I+&@&@&@&@&@&@&@&@&@&@&@&@&@&@&@&@&@&@z@z@z@z@z@I+1#]#X@5./.{+%#2#3#f ",
"F.@ ~@I+$@$@<#<#<#4#I+<#<#<#<#<#<#<#5#I+6#&@&@&@&@&@&@&@&@&@&@&@z@z@z@z@z@z@z@z@+#7#r@8#9#{+> 2#i.% ",
"> s I+0#<#<#a#I+<#<#<#<#<#<#<#<#<#$@I+<#<#<#<#b#I+I+&@&@c#z@z@z@z@z@z@z@z@z@z@z@d#e#b+f#f#g#J _#h#i#",
"> s j#<#k#$@$@I+<#a#I+<#<#<#<#<#$@5#<#<#<#<#<#<#<#<#I+<#l#I+I+m#z@z@z@z@z@z@z@z@I+2#n#h.f#o#2.X L.z ",
"J I+<#<#I+&@&@p#<#<#<#<#<#I+<#<#<#<#<#<#<#<#<#<#<#q#<#<#<#<#<#<#<#<#<#<#b#I+I+I+$@I+r#s#e+o#> I t#{ ",
"y I+<#<#I+z@z@u#<#<#<#<#<#<#I+I+<#v#I+w#<#<#<#<#<#x#<#<#<#<#<#<#<#<#I+<#<#<#<#|#y#<#<#I+=.z#n G A#0 ",
"h B#C#I+<#I+I+<#<#<#<#<#<#D#E#&@I+<#<#<#<#<#l#I+I+<#<#<#<#<#<#<#<#<#<#$@<#<#<#<#<#I+x#<#a#F#O * >.C ",
"-.( e#G#+ I+b#<#<#<#<#<#a#&@&@&@&@<#<#<#<#<#<#<#$@$@<#<#I+I+I+<#<#<#<#I+<#<#<#<#<#<#I+<#<#<#I+q h#D ",
"H#H#* I#+ h#2.I+I+<#<#<#<#I+z@z@J#<#<#<#<#<#<#I+$@$@I+<#<#<#<#<#<#<#v#I+I+I+b#<#<#<#<#I+<#<#$@I++#> ",
"~ Q@n K#* +#: t t ;.I+I+L#<#I+I+<#<#<#<#<#<#l#&@&@&@z@L#<#<#<#<#<#<#M#I+I+<#<#<#<#<#<#<#<#<#$@$@+#+#",
"* +#O q@L +# .t ..h#^.N# .I+I+I+O#<#<#<#<#<#<#&@P#z@z@<#<#<#<#<#<#I+Q#&@&@I+<#<#<#<#$@$@R#I+<#S#T#G#",
"+#+#2 U#n n@G.V#Z +#^.U#G.* W#X#X#Y#I+I+I+<#<#b#I+u#I+<#<#<#<#<#<#I+&@&@z@I+<#<#<#<#I+&@&@z@<#<#I+/+",
"9.+#-.+#G.N#* 9#e+B@b@f@Q@J I+Z#I+X#X#Y#Y#Y#Y#I+I+I+`#<#<#<#<#<#<#<#I+ $I+<#<#<#<#<#I+z@z@&@<#<#I+H ",
"{#H O 9..$H * 4.f#N#5 +#+#2 $@+$@$I+X#X#X#X##$Y#Y#Y#Y#Y#$$I+I+I+I+I+<#<#<#<#<#<#<#<#<#I+I+<#<#<#I++#",
"Q.N#-.Q.Q@n@1#4.s#>.5 +#+#I I++$+$%$I+X#X#X#I+I+I+X#X#X#X#X#X#X#X#X#X#&$+#-.+#3 *$=$-$/@/.G.f@5 +#+#",
"5 +#* ;$+#;$+#=./@Q@5 >$J.q@!+,$I+I+I+'$X#I+)$%$%$+$I+X#X#X#X#I+I+I+I+q@>$/@!$d Q.5 * f#9#* ~${${$+#",
"5 +#* H {#1#{#/@~$.$H H 1#6+H (#+#=.1#X ]$I++$+$+$+$I+X#X#X#I+^$+$+$/$Q.~$b@1#f#v 5 * ,+H ($~$/@G#>$",
"{$!$_$Q@Q.q@Q.f#f#;$5 +#+#5 5 .$G#b@9#f#5 5 I+I+I+I+I+I+I+I+:$+$+$+$I++#5 5 H <$H _$G#g+Q.1#;$5 b@H ",
"5 ($/@;$5 5 1#5 f#K#5 +#+#5 5 b@Q@5 H ,+5 5 H 9#{$*${$Q.v <$b@I+I+6+v {#5 5 Q@b@.$H .$/@b@U#Q.*$b@+#",
"*$*$5 b@5 g+q@g+h.q@_${$G#[$*$~$H v 6+,+[$!+;$~$Q.,#H Q@f@/@5 +#H 6+6+9.[$(#f@5 ;$;$U#5 5 +#5 /@f@!$",
"[$.$*$6+(#(#f@v )#Q@H !+>$v b@5 5 ;$.$/@v Q.5 5 5 Q.9#+#5 )#5 +#` 5 5 1#_$f@f@,#6+b@Q.5 5 +#g+(#9#/@",
"H H b@f@~$~$;$~$~$+#~$H {$;$f@5 5 6+~$9#;$6+5 5 5 Q./@{#_$/@_$5 b@!+5 f@/@5 5 H 5 5 Q@g+*$[$*$f@5 9#",
"5 5 5 5 9#~$~$f@)#($b@5 /@5 f@_$!+6+~$5.~$;$5 ,#_$*.Y n@n@% J .$f@*$.$.$` 5 g+v 5 5 f@/@*$_$/@~$_$/@",
"5 5 5 5 .$f@;$5 f@Q.f@[$.$(#f@H ` 5 5 ~$~$;$/@(#}$h.5 i.|$c % Y ~$/@b@~$.$5 ,#Q._$(#.$5 (#H 5 ~$/@6+",
",#*$[$,#6+5 v ,#/@;$5 6+Q.f@5 5 Q.g+5 .$f@5 5 5.Q.J.5 /.4.^ 2.5 5 ;$5 5 6+*$*$/@/@v Q.,#.$6+*$b@;$5 ",
"/@g+,#/@~$v Q./@5 Q.,#Q.5 Q.5 5 6+,#5 [$6++#5 P f@($!+1$.$<$[$J.5 ` g+5 f@Q.` 9#5 ;$b@/@~$~$H 5 /@{$",
"6+.$(#5 5 f@5 /@(#f@/@f@*$/@_$5 6+{$5 (#5.Q+!+h#b@2$e+4.Q@I#1#,#!+b@_$.$b@5 ~$b@g+H 5 ;$5 5 /@v f@/@",
"/@;$` !+5 H [$6+f@5 ;$5 /@` g+` 6+[$,#` .$2$2$/@f#v /#5 5 3$3$t#.$b@Q.6+6+[$H 5 /@b@{$.$5 5 6+~$5 5 ",
"5 5 ;$,#{$b@6+5 ` ,#` *$b@/@/@6+;$8#` I#4$4.,#B@f#G#($5 5 !+5 4.;$5 5 5 5 6+6+*$/@5 /@H g+v 5 ` 5 5 ",
"!+g+f@Q.` 5 H v 6+/@v /@9#5 5 5 5 5 5 5$4./+>$<$L.H 9.6$y.7$*$8$Q.5 5 5 5 ` 5 /@f@*$b@b@H H ,#H !+{$"};
