/* XPM */
static char * iruka_w_xpm[] = {
"50 50 753 2",
"  	c #0040E5",
". 	c #003DE5",
"+ 	c #006DE5",
"@ 	c #0065E5",
"# 	c #0047E5",
"$ 	c #005AE5",
"% 	c #0061E5",
"& 	c #0078E5",
"* 	c #0023E5",
"= 	c #006BE5",
"- 	c #004BE5",
"; 	c #0050E5",
"> 	c #0024E5",
", 	c #0053E5",
"' 	c #0042E5",
") 	c #0027E5",
"! 	c #0038E5",
"~ 	c #0063E5",
"{ 	c #006EE5",
"] 	c #002AE5",
"^ 	c #002BE5",
"/ 	c #0060E5",
"( 	c #0076E5",
"_ 	c #0041E5",
": 	c #005FE5",
"< 	c #0029E5",
"[ 	c #0044E5",
"} 	c #002CE5",
"| 	c #0067E3",
"1 	c #006AE5",
"2 	c #005EE5",
"3 	c #0066E5",
"4 	c #003AE5",
"5 	c #0023E6",
"6 	c #0074E5",
"7 	c #0045E5",
"8 	c #004AE5",
"9 	c #0033E5",
"0 	c #0025E5",
"a 	c #002EE5",
"b 	c #003CE5",
"c 	c #006FE5",
"d 	c #0070E5",
"e 	c #005DE5",
"f 	c #003EE5",
"g 	c #0058E5",
"h 	c #0048E5",
"i 	c #0034E5",
"j 	c #005BE5",
"k 	c #0030E5",
"l 	c #0035E5",
"m 	c #0069E5",
"n 	c #0043E5",
"o 	c #0037E5",
"p 	c #004EE5",
"q 	c #004CE5",
"r 	c #002AE3",
"s 	c #0026E5",
"t 	c #0022E5",
"u 	c #0059E5",
"v 	c #004CE6",
"w 	c #0054E5",
"x 	c #0028E5",
"y 	c #0032E5",
"z 	c #0057E5",
"A 	c #0031E5",
"B 	c #0056E5",
"C 	c #0049E5",
"D 	c #0072E5",
"E 	c #007BE5",
"F 	c #0029E3",
"G 	c #0067E5",
"H 	c #005AE6",
"I 	c #0055E5",
"J 	c #003FE5",
"K 	c #0051E5",
"L 	c #002DE5",
"M 	c #0039E5",
"N 	c #004FE5",
"O 	c #006CE5",
"P 	c #005DE6",
"Q 	c #0036E5",
"R 	c #0030E4",
"S 	c #0065E4",
"T 	c #0074E4",
"U 	c #007AE4",
"V 	c #003FE4",
"W 	c #005CE5",
"X 	c #0062E5",
"Y 	c #0074E6",
"Z 	c #0046E5",
"` 	c #0055E6",
" .	c #0064E5",
"..	c #002FE5",
"+.	c #004AE6",
"@.	c #24292C",
"#.	c #5B5D5C",
"$.	c #0053E3",
"%.	c #002DE3",
"&.	c #002EE4",
"*.	c #006EE4",
"=.	c #0067E2",
"-.	c #0062E6",
";.	c #0079E6",
">.	c #0075E5",
",.	c #0052E5",
"'.	c #00020E",
").	c #1A568C",
"!.	c #005EB8",
"~.	c #015CAB",
"{.	c #005BAC",
"].	c #015AAA",
"^.	c #065EB7",
"/.	c #0A5994",
"(.	c #000A22",
"_.	c #0059E4",
":.	c #0033E1",
"<.	c #0079E5",
"[.	c #007EE5",
"}.	c #0059E6",
"|.	c #9D98D6",
"1.	c #0C4A85",
"2.	c #0259A8",
"3.	c #0359AC",
"4.	c #015AAC",
"5.	c #0759A5",
"6.	c #0D55A7",
"7.	c #0F57A9",
"8.	c #0559A2",
"9.	c #005EB0",
"0.	c #1359A1",
"a.	c #000503",
"b.	c #0035E0",
"c.	c #0068E5",
"d.	c #0073E5",
"e.	c #006BE6",
"f.	c #0070E6",
"g.	c #050E15",
"h.	c #0D64B3",
"i.	c #035AA7",
"j.	c #638CAC",
"k.	c #FFFFFD",
"l.	c #FEFFFF",
"m.	c #FCFFFF",
"n.	c #FFFFFF",
"o.	c #FFFFFA",
"p.	c #9DCDFB",
"q.	c #045DAD",
"r.	c #0062B2",
"s.	c #06091A",
"t.	c #0026E6",
"u.	c #0073E6",
"v.	c #006CE4",
"w.	c #0033E3",
"x.	c #005DE4",
"y.	c #0055E4",
"z.	c #0069E4",
"A.	c #0043E4",
"B.	c #0042E4",
"C.	c #0045E4",
"D.	c #004BE4",
"E.	c #0046E3",
"F.	c #003FE3",
"G.	c #9C9394",
"H.	c #0057A4",
"I.	c #0457B5",
"J.	c #00529E",
"K.	c #F6FDFF",
"L.	c #FDFEFF",
"M.	c #F8FFFF",
"N.	c #1466B0",
"O.	c #0558A6",
"P.	c #0E0F14",
"Q.	c #0063E4",
"R.	c #0071E5",
"S.	c #002BE4",
"T.	c #0027E4",
"U.	c #0028E6",
"V.	c #0054E4",
"W.	c #0025E6",
"X.	c #0061E3",
"Y.	c #003BE4",
"Z.	c #003FE1",
"`.	c #0058E4",
" +	c #0047E3",
".+	c #0063E6",
"++	c #0049E3",
"@+	c #003BE3",
"#+	c #0052E3",
"$+	c #0037E3",
"%+	c #006BE3",
"&+	c #004AE2",
"*+	c #0047E2",
"=+	c #004FE4",
"-+	c #0A529C",
";+	c #015BA7",
">+	c #0053A5",
",+	c #F7F7EB",
"'+	c #FCFCFC",
")+	c #F2EEED",
"!+	c #F3F7F8",
"~+	c #EBF6FC",
"{+	c #085DAD",
"]+	c #1C5FA3",
"^+	c #0046E4",
"/+	c #0038E3",
"(+	c #002BE6",
"_+	c #005FE4",
":+	c #0034E3",
"<+	c #002CE6",
"[+	c #0067E4",
"}+	c #002EE6",
"|+	c #005BE2",
"1+	c #006AE3",
"2+	c #0058E0",
"3+	c #0037E2",
"4+	c #0040E6",
"5+	c #0051E1",
"6+	c #0035E3",
"7+	c #0042E2",
"8+	c #0060E2",
"9+	c #005FE1",
"0+	c #002EE3",
"a+	c #0072E1",
"b+	c #003BE0",
"c+	c #0065E0",
"d+	c #001028",
"e+	c #005BAE",
"f+	c #E8FFFF",
"g+	c #FFFEFF",
"h+	c #010000",
"i+	c #F6F6F6",
"j+	c #FEFEFE",
"k+	c #FCFEFD",
"l+	c #D9FFFF",
"m+	c #09599E",
"n+	c #060108",
"o+	c #004BE2",
"p+	c #0056E3",
"q+	c #0049E2",
"r+	c #0054E6",
"s+	c #004CE2",
"t+	c #0027E6",
"u+	c #0021E5",
"v+	c #0050E2",
"w+	c #0041E4",
"x+	c #0029E6",
"y+	c #003DE4",
"z+	c #002EE1",
"A+	c #0032E2",
"B+	c #004BDE",
"C+	c #0031E4",
"D+	c #0039E0",
"E+	c #0039E6",
"F+	c #0069E0",
"G+	c #0042E1",
"H+	c #003DE2",
"I+	c #0058E1",
"J+	c #0042E3",
"K+	c #0064E1",
"L+	c #0032E0",
"M+	c #0053E0",
"N+	c #035EB1",
"O+	c #0459A9",
"P+	c #094F8D",
"Q+	c #FFFDFE",
"R+	c #F1F1F1",
"S+	c #FBF9FA",
"T+	c #FFFEFD",
"U+	c #0B5CAB",
"V+	c #1B5382",
"W+	c #040203",
"X+	c #070506",
"Y+	c #005BE1",
"Z+	c #0038E1",
"`+	c #0056E2",
" @	c #0062E0",
".@	c #0032E6",
"+@	c #004EE1",
"@@	c #0046E2",
"#@	c #0036E6",
"$@	c #0058E3",
"%@	c #0030E2",
"&@	c #0035E2",
"*@	c #0051DE",
"=@	c #0041E1",
"-@	c #003CE6",
";@	c #0067E0",
">@	c #0068E2",
",@	c #003EE1",
"'@	c #006EE1",
")@	c #006BE4",
"!@	c #0062E2",
"~@	c #005EE0",
"{@	c #011023",
"]@	c #0458AE",
"^@	c #0759AB",
"/@	c #F0FFFF",
"(@	c #030000",
"_@	c #0A0605",
":@	c #FEFFFA",
"<@	c #0B0800",
"[@	c #4D4C30",
"}@	c #040003",
"|@	c #0B0A08",
"1@	c #E7FEFF",
"2@	c #FEFAF9",
"3@	c #0061E1",
"4@	c #005CE1",
"5@	c #0058E6",
"6@	c #005FE0",
"7@	c #004CE0",
"8@	c #0071E3",
"9@	c #0029E2",
"0@	c #006CE3",
"a@	c #005CDF",
"b@	c #0057E4",
"c@	c #0043E1",
"d@	c #005EE6",
"e@	c #002DE1",
"f@	c #001FE2",
"g@	c #006AE2",
"h@	c #0066E3",
"i@	c #0026E2",
"j@	c #002CE4",
"k@	c #002EE2",
"l@	c #002AE0",
"m@	c #174672",
"n@	c #0A5B9D",
"o@	c #001F45",
"p@	c #FAF9F5",
"q@	c #BBB5BF",
"r@	c #FFFFBF",
"s@	c #A8A6A7",
"t@	c #FBF7B7",
"u@	c #060000",
"v@	c #FBFAF6",
"w@	c #050402",
"x@	c #F4F4F4",
"y@	c #FBFFFF",
"z@	c #0023E0",
"A@	c #002BE1",
"B@	c #005DDF",
"C@	c #0021E0",
"D@	c #0072E0",
"E@	c #0038DF",
"F@	c #0068E3",
"G@	c #0056E1",
"H@	c #0067E6",
"I@	c #002BE3",
"J@	c #0041E3",
"K@	c #004DE3",
"L@	c #0070E0",
"M@	c #0071E6",
"N@	c #005EE2",
"O@	c #0024E2",
"P@	c #0028E1",
"Q@	c #0357A0",
"R@	c #155088",
"S@	c #005DAA",
"T@	c #000617",
"U@	c #0F0A00",
"V@	c #F4F29D",
"W@	c #0B050F",
"X@	c #0F0E0C",
"Y@	c #5F5D5E",
"Z@	c #FAF9FF",
"`@	c #FFFFDE",
" #	c #100D00",
".#	c #0B0708",
"+#	c #005CE0",
"@#	c #0030E1",
"##	c #0058DF",
"$#	c #004DE6",
"%#	c #003CE0",
"&#	c #0028E2",
"*#	c #0068E6",
"=#	c #003EE3",
"-#	c #0060E3",
";#	c #0074E3",
">#	c #0025E0",
",#	c #007BE2",
"'#	c #0052E6",
")#	c #0044E2",
"!#	c #0036E3",
"~#	c #0051E3",
"{#	c #0050E3",
"]#	c #0031E3",
"^#	c #0D5398",
"/#	c #005BB3",
"(#	c #0159B2",
"_#	c #020607",
":#	c #F2F3F5",
"<#	c #FFFFEC",
"[#	c #F5F2E9",
"}#	c #3C3B39",
"|#	c #FBFBFB",
"1#	c #FFFBFC",
"2#	c #EAEBE6",
"3#	c #FAFAFA",
"4#	c #FCFAFB",
"5#	c #0D0B0C",
"6#	c #006BE0",
"7#	c #0049E6",
"8#	c #002FE1",
"9#	c #006AE0",
"0#	c #0061E6",
"a#	c #0064E0",
"b#	c #0070E3",
"c#	c #0043E2",
"d#	c #007AE3",
"e#	c #0025E1",
"f#	c #006EE3",
"g#	c #0055E3",
"h#	c #005CE4",
"i#	c #0037E4",
"j#	c #002CE3",
"k#	c #1560A4",
"l#	c #015AAE",
"m#	c #FEFFFB",
"n#	c #FBFFFB",
"o#	c #FFF9F9",
"p#	c #FFFCFF",
"q#	c #FFFDFF",
"r#	c #0A0809",
"s#	c #0F0D0E",
"t#	c #F9F9F9",
"u#	c #006BE2",
"v#	c #0071E1",
"w#	c #006DE6",
"x#	c #005CE2",
"y#	c #0073E1",
"z#	c #0021E6",
"A#	c #0026E4",
"B#	c #0062E3",
"C#	c #002AE4",
"D#	c #0064E4",
"E#	c #0073E4",
"F#	c #0028E3",
"G#	c #0073E3",
"H#	c #001FE3",
"I#	c #0075E4",
"J#	c #0043E3",
"K#	c #222A35",
"L#	c #085DAE",
"M#	c #075AA8",
"N#	c #123457",
"O#	c #FFFCFD",
"P#	c #F1EDEE",
"Q#	c #E6E7E2",
"R#	c #443B34",
"S#	c #0C0105",
"T#	c #120000",
"U#	c #1C1817",
"V#	c #F8F6F7",
"W#	c #FEFCFD",
"X#	c #767475",
"Y#	c #0020E2",
"Z#	c #0024E6",
"`#	c #007CE2",
" $	c #006AE1",
".$	c #002AE2",
"+$	c #0025E4",
"@$	c #0028E4",
"#$	c #0030E3",
"$$	c #0079E4",
"%$	c #000004",
"&$	c #0058AA",
"*$	c #005EA5",
"=$	c #065AB4",
"-$	c #5B585F",
";$	c #2F201D",
">$	c #E6231F",
",$	c #E2261D",
"'$	c #E52323",
")$	c #E22512",
"!$	c #FDFDFD",
"~$	c #0033E6",
"{$	c #0048E2",
"]$	c #0032E4",
"^$	c #0035E6",
"/$	c #0070E2",
"($	c #004BE6",
"_$	c #005CE3",
":$	c #006FE4",
"<$	c #000411",
"[$	c #035AA9",
"}$	c #0458B0",
"|$	c #002249",
"1$	c #1E5A7F",
"2$	c #FFFCFC",
"3$	c #FBF7F8",
"4$	c #834A36",
"5$	c #DC9056",
"6$	c #1F0000",
"7$	c #AC321B",
"8$	c #000000",
"9$	c #003CE2",
"0$	c #002DE6",
"a$	c #006FE3",
"b$	c #0061E2",
"c$	c #0046E6",
"d$	c #0047E6",
"e$	c #003EE4",
"f$	c #0063E3",
"g$	c #006AE6",
"h$	c #0021E4",
"i$	c #6E8DDD",
"j$	c #0F5CA4",
"k$	c #045AA7",
"l$	c #145DA2",
"m$	c #0960AF",
"n$	c #1D5683",
"o$	c #C0855B",
"p$	c #EF8D50",
"q$	c #F18A4F",
"r$	c #150000",
"s$	c #F7FBFE",
"t$	c #144681",
"u$	c #060002",
"v$	c #0A0A0A",
"w$	c #0061E4",
"x$	c #0045E3",
"y$	c #005FE6",
"z$	c #0022E4",
"A$	c #0080E6",
"B$	c #005BE4",
"C$	c #24292F",
"D$	c #005CB3",
"E$	c #1E5E9B",
"F$	c #124F85",
"G$	c #025BAF",
"H$	c #1E5685",
"I$	c #F9F9FB",
"J$	c #250000",
"K$	c #110000",
"L$	c #FFFBF8",
"M$	c #005DA7",
"N$	c #000200",
"O$	c #0062E4",
"P$	c #0066E6",
"Q$	c #007EE6",
"R$	c #0024E3",
"S$	c #007FE4",
"T$	c #005CE6",
"U$	c #0159B3",
"V$	c #0C5EA8",
"W$	c #0C5BA6",
"X$	c #06599F",
"Y$	c #00529B",
"Z$	c #0F5394",
"`$	c #FAFEFF",
" %	c #0159B0",
".%	c #00042C",
"+%	c #00000B",
"@%	c #0044E6",
"#%	c #0070E4",
"$%	c #0022E6",
"%%	c #0076E3",
"&%	c #0069E6",
"*%	c #007CE5",
"=%	c #0023E4",
"-%	c #006EE6",
";%	c #007BE6",
">%	c #003CE4",
",%	c #104D83",
"'%	c #035AAA",
")%	c #0659A7",
"!%	c #005AB0",
"~%	c #0F59A0",
"{%	c #FBFFFA",
"]%	c #F5FEFF",
"^%	c #005DAC",
"/%	c #0D3A5B",
"(%	c #035BA3",
"_%	c #0066E4",
":%	c #004EE3",
"<%	c #0072E4",
"[%	c #0065E6",
"}%	c #0072E6",
"|%	c #090D16",
"1%	c #0158A8",
"2%	c #F9FFFF",
"3%	c #FCFEF9",
"4%	c #245081",
"5%	c #055CAC",
"6%	c #00072D",
"7%	c #0034E6",
"8%	c #004EE6",
"9%	c #005AE4",
"0%	c #0060E6",
"a%	c #00051C",
"b%	c #065DAD",
"c%	c #FFFEF9",
"d%	c #FEFEFF",
"e%	c #F4FFFF",
"f%	c #164271",
"g%	c #005AB1",
"h%	c #10508D",
"i%	c #004AE4",
"j%	c #006DE4",
"k%	c #004DE5",
"l%	c #000B2E",
"m%	c #0059B0",
"n%	c #025BAB",
"o%	c #F8FCFF",
"p%	c #FFFFFB",
"q%	c #6A8EB0",
"r%	c #0359B0",
"s%	c #00082F",
"t%	c #005DAE",
"u%	c #000714",
"v%	c #0071E4",
"w%	c #005BE6",
"x%	c #0053E6",
"y%	c #000215",
"z%	c #0B62B1",
"A%	c #E9FFFF",
"B%	c #0E5B9F",
"C%	c #0658AC",
"D%	c #000016",
"E%	c #01193B",
"F%	c #003AE6",
"G%	c #0052E4",
"H%	c #007AE5",
"I%	c #0064E6",
"J%	c #007FE6",
"K%	c #8E8F94",
"L%	c #06549E",
"M%	c #195A90",
"N%	c #FDFFFE",
"O%	c #FCFBF7",
"P%	c #0054AB",
"Q%	c #005BB0",
"R%	c #0E1B2E",
"S%	c #0042E6",
"T%	c #0056E6",
"U%	c #0259A9",
"V%	c #005DB4",
"W%	c #005BB5",
"X%	c #0058AB",
"Y%	c #F5FAFD",
"Z%	c #E3FFFF",
"`%	c #0659A9",
" &	c #195790",
".&	c #007AE6",
"+&	c #0050E6",
"@&	c #0076E6",
"#&	c #000005",
"$&	c #D1FDFF",
"%&	c #FEFFF6",
"&&	c #0968B8",
"*&	c #000616",
"=&	c #244B82",
"-&	c #0075E6",
";&	c #0048E6",
">&	c #000B1E",
",&	c #0B60B3",
"'&	c #F6FCFA",
")&	c #0D4A80",
"!&	c #10599D",
"~&	c #085AA6",
"{&	c #00021C",
"]&	c #000417",
"^&	c #07549A",
"/&	c #FBF6FC",
"(&	c #F6FFFF",
"_&	c #6490BF",
":&	c #0259A6",
"<&	c #005CAC",
"[&	c #00030F",
"}&	c #312C29",
"|&	c #0051E6",
"1&	c #170D0B",
"2&	c #055CAB",
"3&	c #0452A5",
"4&	c #DDF7FF",
"5&	c #084D88",
"6&	c #005BB2",
"7&	c #1E436F",
"8&	c #003DE6",
"9&	c #1E5B92",
"0&	c #0463B5",
"a&	c #0056A0",
"b&	c #175794",
"c&	c #1A588B",
"d&	c #115795",
"e&	c #045BA2",
"f&	c #045AAF",
"g&	c #0D5BA5",
"h&	c #003EE6",
"i&	c #0D5496",
"j&	c #005BAA",
"k&	c #005DB2",
"l&	c #015BA9",
"m&	c #025BAD",
"n&	c #0C0B10",
"o&	c #003FE6",
"p&	c #006CE6",
"q&	c #095498",
"r&	c #000B27",
"s&	c #AEBBE6",
"t&	c #0031E6",
"u&	c #0030E6",
"v&	c #0B5791",
"w&	c #4E555F",
"x&	c #0059AB",
"y&	c #0D3C70",
"z&	c #0A58A0",
"A&	c #0043E6",
"B&	c #052C55",
"C&	c #002353",
"D&	c #005CB0",
"E&	c #1B4F7F",
"F&	c #00040F",
"G&	c #0959A0",
"H&	c #0F5495",
"I&	c #000429",
"J&	c #040000",
"K&	c #000B26",
"L&	c #0056A6",
"M&	c #00052A",
"N&	c #080307",
"O&	c #015DA8",
"P&	c #015CA5",
"Q&	c #035CAC",
"R&	c #000711",
"S&	c #015CAD",
"T&	c #000422",
"U&	c #000726",
"V&	c #0D2F54",
"W&	c #080309",
"X&	c #00081D",
"Y&	c #0557AB",
"Z&	c #0F5696",
"`&	c #000619",
" *	c #084F91",
".*	c #2C2422",
"+*	c #000618",
"@*	c #001840",
"#*	c #030009",
"$*	c #615E67",
"%*	c #000932",
"&*	c #00091F",
"**	c #061220",
"=*	c #5A5EE7",
"-*	c #2A2627",
";*	c #0057E6",
">*	c #0041E6",
",*	c #006FE6",
"'*	c #002AE6",
")*	c #0038E6",
"!*	c #0045E6",
"  . + @ # $ % & * = - ; ; > , ' = ) ! ~ { ) ] ^ / ( / _ : < [ } | + 1 [ $ * 2 3 4 ; * 5 = 6 * * * 6 ",
"7 8 9 0 2 * a 2 b c 6 d e f = 1 ~ g h i j ) k l m n o c p $ q ~ r s ) 1 = f 2 t 2 u ) v * w * * 5 2 ",
"4 b 7 x [ > y : z s 0 0 * e 0 x } A B ! + C f / c l * = D E & + F 0 ) w * e d . G 3 u H l $ } 4 5 e ",
"< I u > q > J K n 9 L } L p } ' z M 4 N O   P 0 ~ Q R S T + ( U V ' ] W # ; > X * * * Y 2 2 ; Z ` ~ ",
"I  .N I I - K # ; [ f ..b g #  .2 9 : G d N +.# @.#.$.%.&.*.W =.p h $ I c ~ f I * * * -.* * 6 = ;.* ",
">.] ( ] d k 9 e ~ ,.. ^ Z e _ 0 Q Z  .~ '.).!.~.{.].^./.(._.q :.j O <.[.0 > 3 2 L . ) }.* * u d ` ) ",
"j } N ] , i A B A . u y f z Z M C j |.1.2.3.4.5.6.7.8.~.9.0.a.b.* * 6 c.y * ~ d.u n K e.i > # * f.k ",
"/ e @ C B 9 n u . ) N , p ' ^ W i g.h.i.2.j.k.l.m.m.n.o.p.q.r.s.> * W < ) Z d > t.O & f.' 0 w - u.% ",
"v.0 w.~ x._ y.z.A.B.C.X D.E.F.q G.H.I.J.K.L.n.n.n.n.n.n.M.M.N.O.P.> $ 0 [ Q.R.S.5 X T.U.B V.u d.W.s ",
"X.Y.Z.`. +.+++E.@+#+$+D.%+&+*+=+-+;+>+,+k.n.'+n.n.n.n.n.)+!+~+{+]+p ~ , h %.^+/+(+_+:+<+I %+A [+}+k ",
"|+1+2+B.3+4+5+6+7+8+9+0+a+b+c+d+4.e+f+L.g+h+i+n.n.n.n.n.n.j+k+l+m+n+y k ; o+p+q+r+s+&+t+u+v+w+#+x+y+",
"z+A+B+C+D+E+F+G+:.H+I+J+K+L+M+N+O+P+l.Q+g+g+l.l.n.n.n.R+S+g+T+l.U+V+W+X+e Y+=.Z+.+`+ @.@! +@X.@@#@$@",
"%@&@*@w+=@-@;@>@,@q+'@)@!@~@{@]@^@/@n.n.g+(@(@_@g+n.:@<@[@}@|@n.1@2@n.n.Q+3@4@D+5@6@7@5@, c+8@9@` 0@",
"%@J+a@b@c@d@e@f@g@h@i@j@k@l@m@n@o@p@n.n.q@r@(@(@s@n.n.t@u@v@w@n.x@y@n.n.g+z@A@B@5 C@D@x+c E@F@G@H@I@",
"J@K@L@<.!@M@A@f@N@X.O@j@k@P@Q@R@S@T@n.n.U@V@W@X@Y@n.Z@`@ #w@.#n.n.n.n.n.g+P@k@+#t.@###W.$#%#h@&#*#=#",
"-#;#>#] ,#'#)#!#~#{#]#w+ +=@^#/#(#_#n.n.:#<#[#}#|#1#2#n.3#n.n.l.n.n.4#5#5#e@q+6#7#8#9#5@0#a#b#c#u.S ",
"d#[+e#y f#;.s+K@g#h#F.i#j#k#{.{.l#m#n.n.n.n.n.n.n#o#p#q#l.g+4#4#r#s#t#n.n.n.u#v#w#x#y#z#z#A@A#B#U.C#",
"D#E#Z.n F#U.G#G#H#I#J#K#L#M#{.{.N#O#n.n.n.n.l.P#Q#R#S#T#U#k.V#W#n.n.n.n.n.n.X#Y#Z#`# $z#z#.$A#g#U.C#",
"+$@$=.- #$U.1+`.@$$$%$&${.{.*$=$-$y@n.n.n.n.p#;$>$,$'$)$g+n.n.n.n.n.n.n.n.!$0+Y#Z#$@g@z#~${$]$| ^$A.",
"+$T./$@ C.($_$:$h#<$].[${.{.}$|$1$2$n.n.n.n.l.3$4$5$6$7$W#n.n.n.n.n.n.n.j+8$!#9$0$a$b$c$d$*+_+Q.0#e$",
"&.- f$s z.g$T.h$i$j${.{.e+k$l$m$n$k.n.n.n.n.n.n.o$p$q$r$n.n.n.n.m.s$t$u$v$B#w$x$y$a$F#f.}.1++$z$A$f ",
"Q.@ 0@8 B$0#T.h$C$D${.{.k$E$F$G$H$g+n.n.n.n.n.n.I$J$K$L$n.n.n.n.m.y@M$N$W.z$@$G#Z#O$=#P$Q$1+> z$u.% ",
"> s R$D S$T$A#s S U${.{.V$W$X$Y$Z$m#n.n.n.n.n.n.n.n.n.n.n.n.n.n.m.`$ %.%+%z$T.$@@%#%-#$%$%%%J e$&%*%",
"> s =%-%+$;%>%' g ,%{.{.'%)%!%!%~%{%n.n.n.n.n.n.n.n.n.n.n.n.n.n.l.]%^%/%(%e$A#_%w#z$:%t.$%<%c.X W.z ",
"J b C+[%b }%_+u u+|%1%e+{.{.{.{.O+2%n.n.n.n.n.n.n.n.n.n.n.n.n.n.q#3%i.4%5%6%W T y$B.B$7%r+<%> I 8%{ ",
"y 9 9%0%j W.0 e u+s a%e+{.{.{.{.b%c%n.n.n.n.n.n.n.n.n.n.n.n.n.n.d%e%'%f%g%h%s h$5 #%i%d@;.j%n G ;%0 ",
"h k%#%Z# .Z#0 3 9 8 M l%m%'%{.{.n%o%n.n.n.n.n.n.n.n.n.n.n.n.n.n.p%q%r%s%t%u%0 h$5 d v%$%$%+$O * w%C ",
">.( #%@%+ @%[ 3 e 7 2 x%y%z%{.{.k$A%n.n.n.n.n.n.n.n.n.n.n.n.n.n.m.B%C%D%E%2 a . F%X G%$%$%0 ~ q &%D ",
"H%H%* I%+ &%c.t t + >.J%0 K%L%{.!%M%c%N%n.n.n.n.n.n.n.n.n.n.n.n.O%P%Q%R%.+<.j ' H d p $%S%b 2 >.Z#> ",
"~ w#n T%* Z#: t t ,.<.$#o R.U%V%W%X%Y%l.n.n.n.n.n.n.n.n.n.n.n.n.Z%`% &Z#.&* > = 5 *  .d$+&j * 2 Z#Z#",
"* Z#O *#L Z# .t ..&%[.@& .#&{.{.{.{.$&m.n.n.n.n.n.n.n.n.n.n.%&g+&&4.*&=&M@* > w 5 * + f.-&c.;&2 0$@%",
"Z#Z#2 J%n $#R.+&Z Z#[.J%R.>&{.{.{.{.,&'&n.n.n.n.n.n.n.n.n.n.n.)&{.!&~&{&y$* L X 5 M H%Q$$%> M@; H 4+",
"#@Z#>.Z#R.@&* Q$r+7#H@M@w#]&e+{.{.{.`%^&/&(&k.n.n.n.n.n.l.n._&:&<&[&}&7#.+M L d ` I > ($t.> w#<.M@H ",
"0$H O #@|&H * e.$%@&5 Z#Z#1&2&4.{.{.e+O+3&4&y@k.n.n.n.n.2%5&i.6&7&Z#$%M@*#q y$3 5 2 [ d@8&h .&5 Z#Z#",
".+@&>..+w#$#y$e.7%w%5 Z#Z#I 9&O+{.{.{.{.{.{.0&a&b&c&d&e&f&].D$g&*#Z#$%H Z#>.Z#3 h&O O d@}.R.M@5 Z#Z#",
"5 Z#* .&Z#.&Z#;.d@w#5 ;&U.*#<+i&{.{.{.{.{.{.'%k$j&{.k&r%l&l#m&n&w#F%$%*#;&d@o&d .+5 * $%Q$* -&F%F%Z#",
"5 Z#* H 0$y$0$d@-&|&H H y$p&H d$q&^%{.{.{.{.{.{.{.{.{.{.e+{.r&s&*#;&r+.+-&H@y$$%v 5 * (+H t&-&d@@%;&",
"F%o&u&w#.+*#.+$%$%.&5 Z#Z#5 5 |&@%v&{.{.{.{.{.{.{.{.{.{.e+k$.&.&Z#-&;.Z#5 5 H 8&H u&@%t+.+y$.&5 H@H ",
"5 t&d@.&5 5 y$5 $%T%5 Z#Z#5 5 H@w#w&4.x&{.{.{.{.[$y&{.{.{.z&H@*##@p&v 0$5 5 w#H@|&H |&d@H@J%.+h&H@Z#",
"h&h&5 H@5 t+*#t+t.*#u&F%@%A&h&-&H v B&].{.{.{.{.].C&{.{.D&E&5 Z#H p&p&#@A&d$M@5 .&.&J%5 5 Z#5 d@M@o&",
"A&|&h&p&d$d$M@v ($w#H <+;&v H@5 5 .&F&4.{.{.{.{.G&H&{.{.{.I&5 Z#` 5 5 y$u&M@M@^$p&H@.+5 5 Z#t+d$Q$d@",
"H H H@M@-&-&.&-&-&Z#-&H F%.&M@5 5 p&J&4.{.{.{.{.K&L&{.{.].M&u&5 H@<+5 M@d@5 5 H 5 5 w#t+h&A&h&M@5 Q$",
"5 5 5 5 Q$-&-&M@($t&H@5 d@5 M@u&<+p&N&O&!%P&[$Q&R&Q&k$S&T&U&V&W&M@h&|&|&` 5 t+v 5 5 M@d@h&u&d@-&u&d@",
"5 5 5 5 |&M@.&5 M@.+M@A&|&d$M@H ` 5 X&Y&Z&`& *4..*t.+*~&@*c % Y -&d@H@-&|&5 ^$.+u&d$|&5 d$H 5 -&d@p&",
"^$h&A&^$p&5 v ^$d@.&5 p&.+M@5 5 .+t+#*$*M@5 5 %*&*U.5 }.**^ c.5 5 .&5 5 p&h&h&d@d@v .+^$|&p&h&H@.&5 ",
"d@t+^$d@-&v .+d@5 .+^$.+5 .+5 5 p&^$=*A&p&Z#5 P -*t&<+[%|&8&A&U.5 ` t+5 M@.+` Q$5 .&H@d@-&-&H 5 d@F%",
"p&|&d$5 5 M@5 d@d$M@d@M@h&d@u&5 p&F%5 d$f..@<+&%H@;*r+e.w#I%y$^$<+H@u&|&H@5 -&H@t+H 5 .&5 5 d@v M@d@",
"d@.&` <+5 H A&p&M@5 .&5 d@` t+` p&A&^$` |&;*;*d@$%v c$5 5 >*>*8%|&H@.+p&p&A&H 5 d@H@F%|&5 5 p&-&5 5 ",
"5 5 .&^$F%H@p&5 ` ^$` h&H@d@d@p&.&P$` I%,*e.^$7#$%@%t&5 5 <+5 e..&5 5 5 5 p&p&h&d@5 d@H t+v 5 ` 5 5 ",
"<+t+M@.+` 5 H v p&d@v d@Q$5 5 5 5 5 5 '*e.4+;&8&W.H #@)*S%!*h&}%.+5 5 5 5 ` 5 d@M@h&H@H@H H ^$H <+F%"};
