/* XPM */
static char * tile_xpm[] = {
"50 50 510 2",
"  	c #0040E5",
". 	c #003DE5",
"+ 	c #006DE5",
"@ 	c #0065E5",
"# 	c #0047E5",
"$ 	c #005AE5",
"% 	c #0061E5",
"& 	c #0078E5",
"* 	c #0023E5",
"= 	c #006BE5",
"- 	c #004BE5",
"; 	c #0050E5",
"> 	c #0024E5",
", 	c #0053E5",
"' 	c #0042E5",
") 	c #0027E5",
"! 	c #0038E5",
"~ 	c #0063E5",
"{ 	c #006EE5",
"] 	c #002AE5",
"^ 	c #002BE5",
"/ 	c #0060E5",
"( 	c #0076E5",
"_ 	c #0041E5",
": 	c #005FE5",
"< 	c #0029E5",
"[ 	c #0044E5",
"} 	c #002CE5",
"| 	c #0067E3",
"1 	c #006AE5",
"2 	c #005EE5",
"3 	c #0066E5",
"4 	c #003AE5",
"5 	c #0023E6",
"6 	c #0074E5",
"7 	c #0045E5",
"8 	c #004AE5",
"9 	c #0033E5",
"0 	c #0025E5",
"a 	c #002EE5",
"b 	c #003CE5",
"c 	c #006FE5",
"d 	c #0070E5",
"e 	c #005DE5",
"f 	c #003EE5",
"g 	c #0058E5",
"h 	c #0048E5",
"i 	c #0034E5",
"j 	c #005BE5",
"k 	c #0030E5",
"l 	c #0035E5",
"m 	c #0069E5",
"n 	c #0043E5",
"o 	c #0037E5",
"p 	c #004EE5",
"q 	c #004CE5",
"r 	c #002AE3",
"s 	c #0026E5",
"t 	c #0022E5",
"u 	c #0059E5",
"v 	c #004CE6",
"w 	c #0054E5",
"x 	c #0028E5",
"y 	c #0032E5",
"z 	c #0057E5",
"A 	c #0031E5",
"B 	c #0056E5",
"C 	c #0049E5",
"D 	c #0072E5",
"E 	c #007BE5",
"F 	c #0029E3",
"G 	c #0067E5",
"H 	c #005AE6",
"I 	c #0055E5",
"J 	c #003FE5",
"K 	c #0051E5",
"L 	c #002DE5",
"M 	c #0039E5",
"N 	c #004FE5",
"O 	c #006CE5",
"P 	c #005DE6",
"Q 	c #0036E5",
"R 	c #0030E4",
"S 	c #0065E4",
"T 	c #0074E4",
"U 	c #007AE4",
"V 	c #003FE4",
"W 	c #005CE5",
"X 	c #0062E5",
"Y 	c #0074E6",
"Z 	c #0046E5",
"` 	c #0055E6",
" .	c #0064E5",
"..	c #002FE5",
"+.	c #004AE6",
"@.	c #0053E3",
"#.	c #002DE3",
"$.	c #002EE4",
"%.	c #006EE4",
"&.	c #0067E2",
"*.	c #0062E6",
"=.	c #0079E6",
"-.	c #0075E5",
";.	c #0052E5",
">.	c #005BE6",
",.	c #0067E4",
"'.	c #0068E1",
").	c #003EE1",
"!.	c #0042E2",
"~.	c #0059E4",
"{.	c #0033E1",
"].	c #0079E5",
"^.	c #007EE5",
"/.	c #0059E6",
"(.	c #002EE6",
"_.	c #005BE3",
":.	c #0038E4",
"<.	c #0055DF",
"[.	c #0056DF",
"}.	c #0024E2",
"|.	c #005DE4",
"1.	c #0035E0",
"2.	c #0068E5",
"3.	c #0073E5",
"4.	c #006BE6",
"5.	c #0070E6",
"6.	c #0046E4",
"7.	c #005EE4",
"8.	c #0056E3",
"9.	c #0036E6",
"0.	c #005CE2",
"a.	c #0041E3",
"b.	c #0029E4",
"c.	c #004CDD",
"d.	c #0058DF",
"e.	c #0031E1",
"f.	c #0061E3",
"g.	c #004FE0",
"h.	c #0026E6",
"i.	c #0073E6",
"j.	c #006CE4",
"k.	c #0033E3",
"l.	c #0055E4",
"m.	c #0069E4",
"n.	c #0043E4",
"o.	c #0042E4",
"p.	c #0045E4",
"q.	c #004BE4",
"r.	c #0046E3",
"s.	c #003FE3",
"t.	c #004DE4",
"u.	c #0051E3",
"v.	c #002FE2",
"w.	c #006CE2",
"x.	c #0029E2",
"y.	c #0042E6",
"z.	c #005AE0",
"A.	c #0052DD",
"B.	c #006ADE",
"C.	c #0057E1",
"D.	c #0023E4",
"E.	c #006BE0",
"F.	c #0063E4",
"G.	c #0071E5",
"H.	c #002BE4",
"I.	c #0027E4",
"J.	c #0028E6",
"K.	c #0054E4",
"L.	c #0025E6",
"M.	c #003BE4",
"N.	c #003FE1",
"O.	c #0058E4",
"P.	c #0047E3",
"Q.	c #0063E6",
"R.	c #0049E3",
"S.	c #003BE3",
"T.	c #0052E3",
"U.	c #0037E3",
"V.	c #006BE3",
"W.	c #004AE2",
"X.	c #0047E2",
"Y.	c #004FE4",
"Z.	c #006BE2",
"`.	c #004BE1",
" +	c #0025DF",
".+	c #0059E1",
"++	c #003BE1",
"@+	c #004FE6",
"#+	c #0062DF",
"$+	c #0033E2",
"%+	c #0064DC",
"&+	c #003ADE",
"*+	c #0055E1",
"=+	c #0020E4",
"-+	c #0074E0",
";+	c #0043E3",
">+	c #0038E3",
",+	c #002BE6",
"'+	c #005FE4",
")+	c #0034E3",
"!+	c #002CE6",
"~+	c #005BE2",
"{+	c #006AE3",
"]+	c #0058E0",
"^+	c #0037E2",
"/+	c #0040E6",
"(+	c #0051E1",
"_+	c #0035E3",
":+	c #0060E2",
"<+	c #005FE1",
"[+	c #002EE3",
"}+	c #0072E1",
"|+	c #003BE0",
"1+	c #0065E0",
"2+	c #0059E0",
"3+	c #0050DF",
"4+	c #0060E0",
"5+	c #005EE0",
"6+	c #006CE6",
"7+	c #0061DF",
"8+	c #005FDC",
"9+	c #0048DE",
"0+	c #001CE4",
"a+	c #006BE1",
"b+	c #0060E3",
"c+	c #004BE2",
"d+	c #0049E2",
"e+	c #0054E6",
"f+	c #004CE2",
"g+	c #0027E6",
"h+	c #0021E5",
"i+	c #0050E2",
"j+	c #0041E4",
"k+	c #0029E6",
"l+	c #003DE4",
"m+	c #002EE1",
"n+	c #0032E2",
"o+	c #004BDE",
"p+	c #0031E4",
"q+	c #0039E0",
"r+	c #0039E6",
"s+	c #0069E0",
"t+	c #0042E1",
"u+	c #003DE2",
"v+	c #0058E1",
"w+	c #0042E3",
"x+	c #0064E1",
"y+	c #0032E0",
"z+	c #0053E0",
"A+	c #002AE4",
"B+	c #0074DF",
"C+	c #0077E5",
"D+	c #006DDF",
"E+	c #001CDE",
"F+	c #0031E0",
"G+	c #0025E0",
"H+	c #0022DF",
"I+	c #0064E3",
"J+	c #002EDD",
"K+	c #006CDF",
"L+	c #0062E2",
"M+	c #0048E2",
"N+	c #005BE1",
"O+	c #0038E1",
"P+	c #0056E2",
"Q+	c #0062E0",
"R+	c #0032E6",
"S+	c #004EE1",
"T+	c #0046E2",
"U+	c #0058E3",
"V+	c #0030E2",
"W+	c #0035E2",
"X+	c #0051DE",
"Y+	c #0041E1",
"Z+	c #003CE6",
"`+	c #0067E0",
" @	c #0068E2",
".@	c #006EE1",
"+@	c #006BE4",
"@@	c #006ADF",
"#@	c #006AE0",
"$@	c #001FDE",
"%@	c #0029E0",
"&@	c #0022E0",
"*@	c #005AE3",
"=@	c #002EDE",
"-@	c #001EE4",
";@	c #0038E2",
">@	c #003CE2",
",@	c #0061E1",
"'@	c #005CE1",
")@	c #0058E6",
"!@	c #005FE0",
"~@	c #004CE0",
"{@	c #0071E3",
"]@	c #006CE3",
"^@	c #005CDF",
"/@	c #0057E4",
"(@	c #0043E1",
"_@	c #005EE6",
":@	c #002DE1",
"<@	c #001FE2",
"[@	c #006AE2",
"}@	c #0066E3",
"|@	c #0026E2",
"1@	c #002CE4",
"2@	c #002EE2",
"3@	c #002AE0",
"4@	c #0023E0",
"5@	c #002CE1",
"6@	c #0021E6",
"7@	c #0075E1",
"8@	c #0031DE",
"9@	c #0045E1",
"0@	c #0044E1",
"a@	c #0041E6",
"b@	c #002BE0",
"c@	c #006DE4",
"d@	c #003ADF",
"e@	c #006DE1",
"f@	c #0028E3",
"g@	c #001EE5",
"h@	c #003AE2",
"i@	c #004DE2",
"j@	c #002BE1",
"k@	c #005DDF",
"l@	c #0021E0",
"m@	c #0072E0",
"n@	c #0038DF",
"o@	c #0068E3",
"p@	c #0056E1",
"q@	c #0067E6",
"r@	c #002BE3",
"s@	c #004DE3",
"t@	c #0070E0",
"u@	c #0071E6",
"v@	c #005EE2",
"w@	c #0028E1",
"x@	c #0024E1",
"y@	c #0020E6",
"z@	c #0071E1",
"A@	c #0048E3",
"B@	c #005CE0",
"C@	c #0030E1",
"D@	c #004DE6",
"E@	c #003CE0",
"F@	c #0028E2",
"G@	c #0068E6",
"H@	c #003EE3",
"I@	c #0074E3",
"J@	c #007BE2",
"K@	c #0052E6",
"L@	c #0044E2",
"M@	c #0036E3",
"N@	c #0050E3",
"O@	c #0031E3",
"P@	c #0040E2",
"Q@	c #0045E6",
"R@	c #006EE2",
"S@	c #001CE0",
"T@	c #005FE2",
"U@	c #0060E6",
"V@	c #0022E1",
"W@	c #0025E4",
"X@	c #0080E0",
"Y@	c #0082E2",
"Z@	c #0070E3",
"`@	c #0022E6",
" #	c #002CE3",
".#	c #0049E6",
"+#	c #002FE1",
"@#	c #0061E6",
"##	c #0064E0",
"$#	c #0043E2",
"%#	c #007AE3",
"&#	c #0025E1",
"*#	c #006EE3",
"=#	c #0055E3",
"-#	c #005CE4",
";#	c #0037E4",
">#	c #0059E2",
",#	c #0072E2",
"'#	c #0039E1",
")#	c #0079E2",
"!#	c #006DE6",
"~#	c #0022E2",
"{#	c #0024E4",
"]#	c #0066E1",
"^#	c #0074E2",
"/#	c #0070E4",
"(#	c #0073E1",
"_#	c #0026E4",
":#	c #0062E3",
"<#	c #0064E4",
"[#	c #0073E4",
"}#	c #0073E3",
"|#	c #001FE3",
"1#	c #0075E4",
"2#	c #004EE2",
"3#	c #0050E1",
"4#	c #0025E3",
"5#	c #0024E3",
"6#	c #007BE6",
"7#	c #0034E2",
"8#	c #007BE1",
"9#	c #002AE2",
"0#	c #0040E4",
"a#	c #0062E4",
"b#	c #006FE6",
"c#	c #007DE2",
"d#	c #0020E2",
"e#	c #0024E6",
"f#	c #007CE2",
"g#	c #006AE1",
"h#	c #0028E4",
"i#	c #0030E3",
"j#	c #0079E4",
"k#	c #0051E2",
"l#	c #0032E3",
"m#	c #0023E3",
"n#	c #0072E6",
"o#	c #0064E6",
"p#	c #0051E6",
"q#	c #007CE4",
"r#	c #0033E6",
"s#	c #0032E4",
"t#	c #0035E6",
"u#	c #0070E2",
"v#	c #004BE6",
"w#	c #005CE3",
"x#	c #006FE4",
"y#	c #0081E4",
"z#	c #0057E3",
"A#	c #003DE6",
"B#	c #005AE2",
"C#	c #0059E3",
"D#	c #0022E3",
"E#	c #0077E2",
"F#	c #0050E4",
"G#	c #0075E6",
"H#	c #002DE6",
"I#	c #006FE3",
"J#	c #0061E2",
"K#	c #0046E6",
"L#	c #0047E6",
"M#	c #003EE4",
"N#	c #0063E3",
"O#	c #006AE6",
"P#	c #0021E4",
"Q#	c #005BE4",
"R#	c #003BE6",
"S#	c #007AE5",
"T#	c #0077E4",
"U#	c #0061E4",
"V#	c #0077E6",
"W#	c #0045E3",
"X#	c #005FE6",
"Y#	c #0022E4",
"Z#	c #0080E6",
"`#	c #0079E3",
" $	c #0034E4",
".$	c #0076E4",
"+$	c #0020E3",
"@$	c #0072E3",
"#$	c #0035E4",
"$$	c #0030E6",
"%$	c #0066E4",
"&$	c #0057E6",
"*$	c #007CE6",
"=$	c #0066E6",
"-$	c #007EE6",
";$	c #007FE4",
">$	c #005CE6",
",$	c #0076E3",
"'$	c #0069E6",
")$	c #0044E6",
"!$	c #007CE5",
"~$	c #006EE6",
"{$	c #003CE4",
"]$	c #0071E4",
"^$	c #0044E4",
"/$	c #0031E6",
"($	c #007BE4",
"_$	c #004EE3",
":$	c #0072E4",
"<$	c #0065E6",
"[$	c #002DE4",
"}$	c #0056E4",
"|$	c #0039E4",
"1$	c #0034E6",
"2$	c #004EE6",
"3$	c #005AE4",
"4$	c #0056E6",
"5$	c #003EE6",
"6$	c #004AE4",
"7$	c #004DE5",
"8$	c #007FE5",
"9$	c #0043E6",
"0$	c #0053E6",
"a$	c #003AE6",
"b$	c #0052E4",
"c$	c #007FE6",
"d$	c #007AE6",
"e$	c #003FE6",
"f$	c #0050E6",
"g$	c #0076E6",
"h$	c #003BE5",
"i$	c #0048E6",
"j$	c #002AE6",
"k$	c #0038E6",
"  . + @ # $ % & * = - ; ; > , ' = ) ! ~ { ) ] ^ / ( / _ : < [ } | + 1 [ $ * 2 3 4 ; * 5 = 6 * * * 6 ",
"7 8 9 0 2 * a 2 b c 6 d e f = 1 ~ g h i j ) k l m n o c p $ q ~ r s ) 1 = f 2 t 2 u ) v * w * * 5 2 ",
"4 b 7 x [ > y : z s 0 0 * e 0 x } A B ! + C f / c l * = D E & + F 0 ) w * e d . G 3 u H l $ } 4 5 e ",
"< I u > q > J K n 9 L } L p } ' z M 4 N O   P 0 ~ Q R S T + ( U V ' ] W # ; > X * * * Y 2 2 ; Z ` ~ ",
"I  .N I I - K # ; [ f ..b g #  .2 9 : G d N +.# 1 W @.#.$.%.W &.p h $ I c ~ f I * * * *.* * 6 = =.* ",
"-.] ( ] d k 9 e ~ ;.. ^ Z e _ 0 Q Z  .~ y X >.,.] A '.).!.~.q {.j O ].^.0 > 3 2 L . ) /.* * u d ` ) ",
"j } N ] , i A B A . u y f z Z M C j l W ' e (._.:.> <.[.}.|.B 1.* * 6 2.y * ~ 3.u n K 4.i > # * 5.k ",
"/ e @ C B 9 n u . ) N , p ' ^ W i p 6.,.7.8.9.0.a.b.c.d.e.f.O g.> * W < ) Z d > h.O & 5.' 0 w - i.% ",
"j.0 k.~ |._ l.m.n.o.p.X q.r.s.q t.;.u.v.w.x.y.z.8.[ A.B.C.D.) E.V > $ 0 [ F.G.H.5 X I.J.B K.u 3.L.s ",
"f.M.N.O.P.Q.R.r.S.T.U.q.V.W.X.Y.Z.a `. +.+++@+#+$+% %+&+*+=+< -+;+p ~ , h #.6.>+,+'+)+!+I V.A ,.(.k ",
"~+{+]+o.^+/+(+_+!.:+<+[+}+|+1+K.]+g 2+3+4+5+6+7+a.~ 8+9+~+0+Z a+b+O y k ; c+8.d+e+f+W.g+h+i+j+T.k+l+",
"m+n+o+p+q+r+s+t+{.u+v+w+x+y+z+A+B+C+D+E+F+G+k+H+I+0 J+K+L+l.- e.M+n.# M.e N+&.O+Q.P+Q+R+! S+f.T+9.U+",
"V+W+X+j+Y+Z+`+ @).d+.@+@L+5+@@t.#@ .1+$@%@G+J.&@*@s =@#@}.-@w ;@>@<  . .{ ,@'@q+)@!@~@)@, 1+{@x.` ]@",
"V+w+^@/@(@_@:@<@[@}@|@1@2@3@4@c 5@6@7@8@9@0@a@b@c@a d@e@f@g@3 h@i@n : o E 4@j@k@5 l@m@k+c n@o@p@q@r@",
"a.s@t@].L+u@j@<@v@f.}.1@2@w@x@2 j@y@}+d.{.f+Z+'@c@z <.z@;+[ 5.I+A@2 m   u w@2@B@h.C@d.L.D@E@}@F@G@H@",
"b+I@G+] J@K@L@M@u.N@O@j+P.Y+x@O P@Q@R@S@T@f+U@V@W@0 X@Y@Z@3.`@ #f.< ( X X :@d+E..#+##@)@@###Z@$#i.S ",
"%#,.&#y *#=.f+s@=#-#s.;# #W.>#O L+4.,#'#w.)#!#~#{#< ]#^#/#;.5 r@8.f @#^ c >#Z.z@!#0.(#6@6@j@_#:#J.A+",
"<#[#N.n f@J.}#}#|#1#;+[ r@2#}.* f@6@f@3#4#5#6#7#V (.8#9#D.W 5 0#a#% b#[ b#c#r d#e#f#g#6@6@9#_#=#J.A+",
"W@h#&.- i#J.{+O.h#j#V.4 t.b+F@* f@6@i#k#l#m#n#:#[ o#,#l#h#1 p#V q#) 6@u g+=#[+d#e#U+[@6@r#M+s#| t#n.",
"W@I.u#@ p.v#w#x#-#y#D.X ,.z#O@f H@A#>+B#F C#!#D#G.e#E#C#F#p G#a#[#s 6@I @+| M@>@H#I#J#K#L#X.'+F.@#M#",
"$.- N#s m.O#I.P#%.a#M#X b.{@=#M l+r#Q#T@F./#G@w+: R#*#f@S#& 5 T#U#_ A#w V#:#U#W#X#I#f@5./.{+W@Y#Z#f ",
"F.@ ]@8 Q#@#I.P#-#< ,.{ q.c@`##  $@+.$+${#D.e#+@2 X#@$#$q % $$%$I.&$K#*$L.Y#h#}#e#a#H@=$-${+> Y#i.% ",
"> s 5#D ;$>$_#s S - l.) c W@D.u@/@G#c@+${#D.e#a#* e#,$S O *.Q.3.- '$5.b#L.Y#I.U+)$/#b+`@`@,$J M#'$!$",
"> s D.~$W@6#{$' g 3.2.p @ {#D.q@c@`@]$l#^$n./$,.* e#<#($* 6@5 s { L.`@*$a@M#_#%$!#Y#_$h.`@:$2.X L.z ",
"J b p+<$b n#'+u h+) * C+@ [$1@p#}$y..$-#p+4 X#+@A H#m.Q#} 6@5 s / e#h.i.U@|$W T X#o.Q#1$e+:$> I 2${ ",
"y 9 3$U@j L.0 e h+s x / s t.D.H D 4.> P#I q e#T I 4$c@D } a@5$s + /+L#n#e#|.s P#5 /#6$_@=.c@n G 6#0 ",
"h 7$/#e# .e#0 3 9 8 M ~$_ j $ G#0 e+> P#2.u )$O * e#W@8$X y.9$/ m '$5.n#)$; 0 P#5 d ]$`@`@W@O * >.C ",
"-.( /#)$+ )$[ 3 e 7 2 0$/ S#* Q.7$*.> :.q * !#-.e#e#W@/ * q@Q.0 0 e#`@L.!#2 a . a$X b$`@`@0 ~ q '$D ",
"S#S#* o#+ '$2.t t + -.c$0 2.M u@( /.B ..2 f ` X /$/$< / q _@_@0 > e#`@e#Q.].j ' H d p `@y.b 2 -.e#> ",
"~ !#n 4$* e#: t t ;.].D@o G.u 5 > `@O X I G d$O p#9$7$B G#`@` > J e$y.e#d$* > = 5 *  .L#f$j * 2 e#e#",
"* e#O G@L e# .t ..'$^.g$ .S## g+> `@~ t ^.* 5 * -$q@+ > 6+y.Q.7$h$a$L#U@u@* > w 5 * + 5.G#2.i$2 H#)$",
"e#e#2 c$n D@G.f$Z e#^.c$G.* O a$n $$~ . $ * 5 * H G# .h$u@4.u@n#/+)$q@e#X#* L X 5 M S#-$`@> u@; H /+",
"9.e#-.e#G.g$* -$e+.#q@u@!#J d _@n _@$ e 2 } 9$} d$5 * j 5 =.5 e#G@G@5..#Q.M L d ` I > v#h.> !#].u@H ",
"H#H O 9.p#H * 4.`@g$5 e#e#2 * 5 O -$* t O H v X u@g+* B 5$e+g+e#H e#`@u@G@q X#3 5 2 [ _@A#h d$5 e#e#",
"Q.g$-.Q.!#D@X#4.1$>.5 e#e#I * 5 G@e+J.t q@5 d$* u@p#* H q@/.g+a$G@e#`@H e#-.e#3 5$O O _@/.G.u@5 e#e#",
"5 e#* d$e#d$e#=._@!#5 i$J.G@!+a$X#4.9.' q@a$H a$6+6+2 !#5 5.p#D@!#a$`@G@i$_@e$d Q.5 * `@-$* G#a$a$e#",
"5 e#* H H#X#H#_@G#p#H H X#6+H L#e#=.X#X Q._@p#_@5 5 * Q.9$4.-$d$G@i$e+Q.G#q@X#`@v 5 * ,+H /$G#_@)$i$",
"a$e$$$!#Q.G@Q.`@`@d$5 e#e#5 5 p#)$q@-$`@5 5 d$6+5 5 e#u@6+`@d$d$e#G#=.e#5 5 H A#H $$)$g+Q.X#d$5 q@H ",
"5 /$_@d$5 5 X#5 `@4$5 e#e#5 5 q@!#5 H ,+5 5 H -$a$5$a$Q.v A#q@G@9.6+v H#5 5 !#q@p#H p#_@q@c$Q.5$q@e#",
"5$5$5 q@5 g+G@g+h.G@$$a$)$9$5$G#H v 6+,+9$!+d$G#Q.t#H !#u@_@5 e#H 6+6+9.9$L#u@5 d$d$c$5 5 e#5 _@u@e$",
"9$p#5$6+L#L#u@v v#!#H !+i$v q@5 5 d$p#_@v Q.5 5 5 Q.-$e#5 v#5 e#` 5 5 X#$$u@u@t#6+q@Q.5 5 e#g+L#-$_@",
"H H q@u@G#G#d$G#G#e#G#H a$d$u@5 5 6+G#-$d$6+5 5 5 Q._@H#$$_@$$5 q@!+5 u@_@5 5 H 5 5 !#g+5$9$5$u@5 -$",
"5 5 5 5 -$G#G#u@v#/$q@5 _@5 u@$$!+6+G#5.G#d$5 t#$$*.Y D@D@% J p#u@5$p#p#` 5 g+v 5 5 u@_@5$$$_@G#$$_@",
"5 5 5 5 p#u@d$5 u@Q.u@9$p#L#u@H ` 5 5 G#G#d$_@L#0$h.5 i.~$c % Y G#_@q@G#p#5 t#Q.$$L#p#5 L#H 5 G#_@6+",
"t#5$9$t#6+5 v t#_@d$5 6+Q.u@5 5 Q.g+5 p#u@5 5 5.Q.J.5 /.4.^ 2.5 5 d$5 5 6+5$5$_@_@v Q.t#p#6+5$q@d$5 ",
"_@g+t#_@G#v Q._@5 Q.t#Q.5 Q.5 5 6+t#5 9$6+e#5 P u@/$!+<$p#A#9$J.5 ` g+5 u@Q.` -$5 d$q@_@G#G#H 5 _@a$",
"6+p#L#5 5 u@5 _@L#u@_@u@5$_@$$5 6+a$5 L#5.R+!+'$q@&$e+4.!#o#X#t#!+q@$$p#q@5 G#q@g+H 5 d$5 5 _@v u@_@",
"_@d$` !+5 H 9$6+u@5 d$5 _@` g+` 6+9$t#` p#&$&$_@`@v K#5 5 a@a@2$p#q@Q.6+6+9$H 5 _@q@a$p#5 5 6+G#5 5 ",
"5 5 d$t#a$q@6+5 ` t#` 5$q@_@_@6+d$=$` o#b#4.t#.#`@)$/$5 5 !+5 4.d$5 5 5 5 6+6+5$_@5 _@H g+v 5 ` 5 5 ",
"!+g+u@Q.` 5 H v 6+_@v _@-$5 5 5 5 5 5 j$4./+i$A#L.H 9.k$y.Q@5$n#Q.5 5 5 5 ` 5 _@u@5$q@q@H H t#H !+a$"};
